<?xml version="1.0" standalone="no"?>
<!DOCTYPE svg PUBLIC "-//W3C//DTD SVG 20010904//EN"
 "http://www.w3.org/TR/2001/REC-SVG-20010904/DTD/svg10.dtd">
<svg version="1.0" xmlns="http://www.w3.org/2000/svg"
 width="512.000000pt" height="512.000000pt" viewBox="0 0 512.000000 512.000000"
 preserveAspectRatio="xMidYMid meet">
<metadata>
Created by potrace 1.16, written by Peter Selinger 2001-2019
</metadata>
<g transform="translate(0.000000,512.000000) scale(0.100000,-0.100000)"
fill="#000000" stroke="none">
<path d="M1239 5097 c-46 -31 -69 -80 -69 -149 l0 -58 -57 0 c-109 0 -173 -58
-173 -155 0 -97 64 -155 173 -155 l57 0 0 -57 c0 -109 58 -173 155 -173 97 0
155 64 155 173 l0 57 58 0 c108 0 172 58 172 155 0 97 -64 155 -172 155 l-58
0 0 58 c0 108 -58 172 -155 172 -37 0 -62 -6 -86 -23z"/>
<path d="M2266 5091 c-44 -30 -68 -75 -68 -129 0 -41 30 -301 48 -414 l6 -38
1409 0 c775 0 1409 2 1409 5 0 3 11 92 25 197 38 290 34 330 -41 379 -28 18
-74 19 -1394 19 -1326 0 -1366 -1 -1394 -19z"/>
<path d="M230 4872 c-108 -54 -108 -220 0 -274 105 -53 220 19 220 137 0 88
-65 155 -150 155 -19 0 -51 -8 -70 -18z"/>
<path d="M2294 4183 c6 -28 166 -1164 166 -1177 0 -3 28 -6 63 -6 204 0 380
-125 439 -313 14 -46 18 -92 18 -207 l0 -148 65 -65 c44 -44 76 -88 98 -134
l32 -68 3 -437 3 -438 734 0 c608 0 735 2 735 13 0 8 86 685 190 1506 104 821
190 1494 190 1497 0 2 -617 4 -1371 4 l-1371 0 6 -27z"/>
<path d="M666 4071 c-46 -31 -66 -69 -66 -131 0 -95 55 -150 150 -150 95 0
150 55 150 150 0 95 -55 150 -150 150 -37 0 -64 -6 -84 -19z"/>
<path d="M1232 3530 c-46 -11 -97 -62 -112 -113 -31 -105 -106 -222 -214 -334
l-79 -83 592 0 c383 0 591 3 591 10 0 18 -106 135 -185 203 -105 91 -254 190
-390 259 -120 61 -153 70 -203 58z"/>
<path d="M280 2692 c-19 -9 -45 -32 -57 -51 -22 -33 -23 -43 -23 -237 l0 -204
1245 0 1245 0 0 204 c0 194 -1 204 -23 237 -49 74 39 69 -1222 69 -1056 0
-1132 -1 -1165 -18z"/>
<path d="M66 1881 c-15 -10 -37 -32 -47 -47 -18 -28 -19 -63 -19 -884 0 -821
1 -856 19 -884 10 -15 32 -37 47 -47 28 -18 74 -19 1427 -19 l1397 0 0 903 c0
867 -1 903 -19 931 -10 15 -32 37 -47 47 -28 18 -73 19 -1379 19 -1306 0
-1351 -1 -1379 -19z m2242 -506 c18 -11 42 -34 53 -51 18 -29 19 -53 19 -374
0 -321 -1 -345 -19 -374 -11 -17 -35 -40 -53 -51 -32 -20 -51 -20 -863 -20
l-830 0 -35 22 c-19 12 -44 37 -55 55 -19 31 -20 51 -20 363 0 361 2 377 57
417 17 11 44 24 62 29 17 4 396 7 841 6 791 -2 811 -2 843 -22z"/>
<path d="M794 1097 c-2 -7 -3 -76 -2 -152 l3 -140 648 -3 647 -2 0 155 0 155
-645 0 c-520 0 -647 -3 -651 -13z"/>
<path d="M3180 450 l0 -450 673 0 c641 0 673 1 701 19 15 10 37 32 47 47 18
27 19 54 19 432 l0 402 -720 0 -720 0 0 -450z"/>
</g>
</svg>
